<?xml version="1.0" encoding="UTF-8" standalone="no"?>
<!DOCTYPE svg PUBLIC "-//W3C//DTD SVG 1.1//EN" "http://www.w3.org/Graphics/SVG/1.1/DTD/svg11.dtd">
<svg width="100%" height="100%" viewBox="0 0 611 611" version="1.1" xmlns="http://www.w3.org/2000/svg" xmlns:xlink="http://www.w3.org/1999/xlink" xml:space="preserve" xmlns:affinity="https://www.affinity.studio/" style="fill-rule:evenodd;clip-rule:evenodd;stroke-linecap:round;stroke-linejoin:round;stroke-miterlimit:1.5;">
    <g transform="matrix(1,0,0,1,-1123.992782,-1879.170956)">
        <g transform="matrix(0.560837,0,-0,0.560837,-8.014506,1544.112338)">
            <path d="M2938.078,616C2978.105,616 3016.493,631.901 3044.796,660.204C3073.099,688.507 3089,726.895 3089,766.922L3089,1517.078C3089,1557.105 3073.099,1595.493 3044.796,1623.796C3016.493,1652.099 2978.105,1668 2938.078,1668L2187.922,1668C2147.895,1668 2109.507,1652.099 2081.204,1623.796C2052.901,1595.493 2037,1557.105 2037,1517.078C2037,1317.218 2037,966.782 2037,766.922C2037,726.895 2052.901,688.507 2081.204,660.204C2109.507,631.901 2147.895,616 2187.922,616L2938.078,616Z" style="fill:white;stroke:black;stroke-width:37.15px;"/>
        </g>
        <rect x="1196" y="1963" width="467" height="443" style="fill:white;stroke:black;stroke-width:27.08px;"/>
        <rect x="1245" y="2021" width="89" height="24" style="fill:white;stroke:black;stroke-width:27.08px;"/>
        <rect x="1245" y="2104" width="301" height="21" style="fill:white;stroke:black;stroke-width:27.08px;"/>
        <rect x="1245" y="2184.5" width="301" height="20.5" style="fill:white;stroke:black;stroke-width:27.08px;"/>
        <rect x="1245" y="2267.717" width="301" height="96.283" style="fill:white;stroke:black;stroke-width:27.08px;"/>
    </g>
</svg>
